<?xml version="1.0" encoding="utf-8"?>
<!-- Generator: Adobe Illustrator 25.4.1, SVG Export Plug-In . SVG Version: 6.00 Build 0)  -->
<svg version="1.1" id="Layer_1" xmlns="http://www.w3.org/2000/svg" xmlns:xlink="http://www.w3.org/1999/xlink" x="0px" y="0px"
	 viewBox="0 0 200 200" style="enable-background:new 0 0 200 200;" xml:space="preserve">
<style type="text/css">
	.st0{fill:#FFFFFF;}
</style>
<g>
	<path class="st0" d="M42.1,3.8C55.5,15.6,68.6,27.2,82,39.1c0-3.5,0-6.5,0-10.1c3.8,3.4,7.2,6.4,10.9,9.6c0.6-2,1.1-3.9,1.8-6
		c1.2,1.6,2.4,2.9,3.3,4.4c1,1.5,2,1.7,3.7,1.2c9.2-2.9,18.5-5.6,27.8-8.4c0.6-0.2,1.2-0.3,2.4-0.7c-3.2,6-6.2,11.5-9.3,17.3
		c5.2-0.7,10.2-1.4,15.5-2.2c-1.9,3.1-3.7,5.8-5.6,8.9c20.6,0,40.7,0,61.5,0c-4.3,3.7-8.1,7.1-11.9,10.4
		c-11.1,9.7-22.1,19.3-33.2,28.9c-0.8,0.7-1.2,1.4-1.3,2.4c-1.2,10.8-2.2,21.7-5,32.2c-5.1,19.4-15.5,35.6-34.4,43.6
		c-26.9,11.4-51.7,6.2-70.8-17.8c-6.2-7.8-11.6-16-13.4-26.1c-2-11.3-0.7-22.4,2.3-33.3c2.1-7.5,6.3-13.9,10.6-20.2
		c1.9-2.8,4-5.6,6.1-8.3c1.2-1.5,1.7-3,1.6-5c-0.8-18-1.6-36.1-2.4-54.1C42.1,5.2,42.1,4.8,42.1,3.8z M83.6,140.9
		c1.2,0.4,1.7-0.3,2-1.8c1-4.8,2.1-9.6,3.3-14.3c0.3-1.3,0.2-1.8-1.3-1.9c-6-0.5-11.7-1.9-17.2-4.4c-1-0.5-1.2-0.2-1.5,0.8
		c-1.1,4.9-2.2,9.8-3.4,14.8c-0.2,0.7-0.2,1.1,0.6,1.5C71.5,138,77.1,140.3,83.6,140.9z M123.4,90.2c-0.3,0.1-0.5,0.1-0.7,0.2
		c-5.5,3.3-10.9,6.6-16.4,9.9c-0.8,0.5-0.9,1.1-0.8,1.9c0.2,2,0,4.1-0.6,6c-0.2,0.6-0.4,1.4-1.1,1.4c-0.7,0-1-0.8-1.1-1.4
		c-0.3-1.7-0.6-3.3-0.9-5.2c-2.8,1.7-5.4,3.3-8.1,5c2.3,1.7,4.6,3,7,4c7.7,3.2,14,1.3,18.1-5.7C121.6,101.4,122.8,95.9,123.4,90.2z
		 M71.1,94.2c-1.4,1.3-2.6,2.7-4.1,3.5c-0.5,0.3-1.1,0.7-1.6,0.4c-0.6-0.4-0.3-1.2-0.1-1.8c0.8-1.9,2-3.6,3.5-4.9
		c0.9-0.8,0.9-1.5,0.6-2.6c-1.1-3.3-2.1-6.7-3.2-10c-0.9-2.8-1.8-5.5-2.7-8.6c-3.2,4.5-5.7,9-6.9,14c-1.2,4.8-1.1,9.6,2.7,13.4
		c4,4,9.2,5.1,14.8,5.8C73,100.2,72.1,97.3,71.1,94.2z M88.7,140.9c5.5-0.4,10.5-2.2,15.3-4.9c0.6-0.4,1.1-0.8,1.3-1.6
		c0.8-3.8,1.7-7.5,2.6-11.3c0.3-1.2-0.1-1.4-1.2-1.2c-4.8,0.9-9.6,1.4-14.5,1.2c-1.4-0.1-1.9,0.4-2.1,1.8c-0.9,4.6-2.1,9.2-3.1,13.7
		C86.3,141,86.3,141,88.7,140.9z M54.9,108.1c-1.2,5.1-2.2,9.9-3.4,14.7c-0.2,0.7-0.1,1.2,0.3,1.7c3,4,6.9,7,11.2,9.4
		c0.7,0.4,1.1,0.4,1.3-0.5c1.1-5,2.2-10,3.4-15c0.2-0.7,0-1.2-0.7-1.5C62.7,114.6,58.8,111.7,54.9,108.1z M44.4,94.1
		c-0.3,12.4,2.1,23.4,6,27.9c1.1-4.8,2.2-9.5,3.3-14.2c0.1-0.5,0.1-0.9-0.3-1.3C49.9,102.7,47,98.6,44.4,94.1z M106.5,134.4
		c6.6-4.6,11.8-10,16.3-16.3c-0.6,0-0.9-0.1-1.1-0.1c-3.7,1.3-7.5,2.3-11.3,3.2c-0.7,0.2-1,0.6-1.2,1.2
		C108.4,126.3,107.5,130.1,106.5,134.4z"/>
	<path class="st0" d="M189.5,108.1c-4.5,2.1-8.9,3.9-8.1,10.4c-2.8-3-5.5-2.4-8.2-1.2c-7.8,3.2-15.7,6.4-23.6,9.5
		c-0.5,0.2-1,0.3-1.7,0.5c0.8-4.9,1.7-9.7,2.5-14.6c0.7-4.7,1.3-9.5,1.9-14.2c0.1-0.9,0.2-1.6,1.4-1.5c8.5,0.3,17,0.4,25.4,1.9
		c0.8,0.2,1.7,0.3,2.5,0.6c3.3,1,3.4,1.2,1.9,4.3c-0.4,0.9-0.4,1.3,0.6,1.7C185.8,106.3,187.4,107.1,189.5,108.1z"/>
	<path class="st0" d="M24.5,82c-2-4.3-3.9-8.6-6.4-12.6c-2-3.2-4.5-5.8-7.8-7.8c-2-1.2-1.9-1.5-0.3-3.1c2.8-2.6,2.7-3.3-0.5-5.3
		c-1.2-0.7-2.4-1.5-3.5-2.3c-0.4-0.3-0.9-0.6-0.8-1.1c0.1-0.6,0.8-0.8,1.3-0.9c2.2-0.5,4.5-0.6,6.7-0.6c1.4,0,1.7-0.5,1.5-1.7
		c-0.3-1.6-0.5-3.3-0.8-5.1c1.8,0.3,3.3,1.3,4.8,1.9c6.9,3.1,13,7.5,19.5,11.3c0.4,0.2,0.7,0.4,0.8,0.9c0.1,2.5,0.7,4.9-1.2,7.3
		c-4.6,5.6-8.6,11.6-12.1,18C25.3,81.3,25.2,81.8,24.5,82z"/>
	<path class="st0" d="M129.7,161.7c1.3,6.9-0.7,12.9-3.5,18.6c-2,4.1-4.6,7.8-7.4,11.4c-2.3,3-5.4,4.4-9,4.8c-1.7,0.2-3.4,0.2-5,0
		c-2.7-0.2-4.8-1.1-6-4c-1.5-3.5-3.6-6.8-5.6-10.1c-0.8-1.3-0.9-1.7,0.9-2c9.4-1.7,18.5-4.5,26.4-10.4
		C123.5,167.6,126.5,164.9,129.7,161.7z"/>
	<path class="st0" d="M19.9,133.6c3.8,10.5,9.9,19.2,17.2,27.3c2.8,3.1,5.9,5.8,9.1,8.4c0.6,0.5,1.8,0.9,1.1,1.9
		c-0.6,0.9-1.5,0.2-2.3,0c-0.3-0.1-0.5-0.2-0.8-0.3c-2.1-0.9-2.1-0.8-2.2,1.5c0,0.7,0.4,1.7-0.5,2.1c-0.8,0.3-1.4-0.5-2-0.9
		c-0.6-0.5-1.3-1.1-1.8-1.8c-0.8-1-1.4-1.5-2.4-0.3c-0.4,0.5-0.9,0.4-1.3-0.1c-1-1.1-2.3-2-2.8-3.4c-0.9-2.3-2.6-3.8-4.2-5.4
		c-5.8-5.8-9-12.8-9-21.1C18,138.7,18.7,136.3,19.9,133.6z"/>
	<path class="st0" d="M66,179.4c6.3,1.7,12.1,2.3,18.4,2.2c-1.7,3.3-3.3,6.3-4.9,9.4c-0.4,0.8-0.9,0.6-1.5,0.3
		C73,188.6,69.3,184.6,66,179.4z"/>
</g>
</svg>
