<?xml version="1.0" encoding="utf-8"?>
<!-- Generator: Adobe Illustrator 25.4.1, SVG Export Plug-In . SVG Version: 6.00 Build 0)  -->
<svg version="1.1" id="Layer_1" xmlns="http://www.w3.org/2000/svg" xmlns:xlink="http://www.w3.org/1999/xlink" x="0px" y="0px"
	 viewBox="0 0 411 64" style="enable-background:new 0 0 411 64;" xml:space="preserve">
<g>
	<path d="M170.7,41.4c-0.9,0.3-2,0.7-3.4,1s-2.8,0.5-4.2,0.5c-3.2,0-5.8-0.9-7.6-2.6c-1.8-1.8-2.8-4.2-2.8-7.3c0-3,0.9-5.4,2.8-7.2
		c1.9-1.8,4.4-2.7,7.8-2.7c1.3,0,2.5,0.1,3.6,0.3c1.1,0.2,2.4,0.7,3.8,1.4v4.5h-0.6c-0.2-0.2-0.6-0.4-1.1-0.8
		c-0.5-0.3-0.9-0.6-1.3-0.8c-0.5-0.3-1.1-0.5-1.7-0.7c-0.7-0.2-1.4-0.3-2.1-0.3c-0.9,0-1.7,0.1-2.4,0.4c-0.7,0.3-1.3,0.6-1.9,1.2
		c-0.5,0.5-1,1.2-1.3,2c-0.3,0.8-0.5,1.7-0.5,2.7c0,2.1,0.6,3.7,1.7,4.8c1.1,1.1,2.8,1.7,5,1.7c0.2,0,0.4,0,0.6,0c0.2,0,0.4,0,0.6,0
		v-3.7h-3.8v-3.6h8.8V41.4z"/>
	<path d="M189,36.1h-10.6c0.1,1.1,0.5,2,1.3,2.6c0.8,0.6,2,0.9,3.5,0.9c1,0,1.9-0.2,2.8-0.5c0.9-0.4,1.6-0.7,2.2-1.1h0.5v3.7
		c-1,0.4-2,0.7-2.9,0.9s-1.9,0.3-3.1,0.3c-2.9,0-5.1-0.6-6.6-1.9c-1.5-1.3-2.3-3.1-2.3-5.6c0-2.4,0.7-4.3,2.2-5.6
		c1.5-1.4,3.5-2.1,6-2.1c2.3,0,4.1,0.6,5.3,1.8c1.2,1.2,1.8,2.9,1.8,5.1V36.1z M184.5,33.4c0-1-0.3-1.7-0.7-2.2
		c-0.5-0.5-1.2-0.7-2.1-0.7c-0.9,0-1.6,0.2-2.2,0.7c-0.6,0.5-0.9,1.2-1,2.2H184.5z"/>
	<path d="M202.7,32.4h-0.4c-0.2-0.1-0.5-0.1-0.9-0.2c-0.4,0-0.8-0.1-1.1-0.1c-0.7,0-1.2,0-1.7,0.1c-0.5,0.1-1,0.2-1.6,0.4v9.6h-4.6
		V28.1h4.6v2.1c1-0.9,1.9-1.5,2.6-1.7c0.8-0.3,1.4-0.4,2.1-0.4c0.2,0,0.3,0,0.6,0c0.2,0,0.4,0,0.5,0V32.4z"/>
	<path d="M214.1,40.9c-0.2,0.2-0.6,0.4-0.9,0.7c-0.4,0.3-0.7,0.5-1,0.6c-0.5,0.2-0.9,0.4-1.4,0.5c-0.5,0.1-1,0.1-1.6,0.1
		c-1.4,0-2.5-0.4-3.4-1.3s-1.4-1.9-1.4-3.2c0-1.1,0.2-1.9,0.7-2.6c0.5-0.7,1.1-1.2,2-1.6c0.9-0.4,1.9-0.7,3.2-0.8
		c1.3-0.2,2.6-0.3,3.9-0.4v-0.1c0-0.8-0.3-1.3-1-1.6c-0.7-0.3-1.6-0.5-2.9-0.5c-0.8,0-1.6,0.1-2.4,0.4c-0.9,0.3-1.5,0.5-1.9,0.6
		h-0.4v-3.5c0.5-0.1,1.3-0.3,2.4-0.5c1.1-0.2,2.2-0.3,3.3-0.3c2.6,0,4.5,0.4,5.7,1.2c1.2,0.8,1.8,2.1,1.8,3.8v9.8h-4.6V40.9z
		 M214.1,38.7v-3c-0.6,0.1-1.3,0.1-2,0.2c-0.7,0.1-1.3,0.2-1.7,0.3c-0.5,0.1-0.8,0.4-1.1,0.6c-0.2,0.3-0.4,0.6-0.4,1.1
		c0,0.3,0,0.5,0.1,0.7c0.1,0.2,0.2,0.4,0.4,0.5c0.2,0.2,0.4,0.3,0.7,0.4c0.3,0.1,0.7,0.1,1.3,0.1c0.5,0,0.9-0.1,1.4-0.3
		C213.3,39.2,213.7,39,214.1,38.7z"/>
	<path d="M233.3,32.4h-0.4c-0.2-0.1-0.5-0.1-0.9-0.2c-0.4,0-0.8-0.1-1.1-0.1c-0.7,0-1.2,0-1.7,0.1c-0.5,0.1-1,0.2-1.6,0.4v9.6h-4.6
		V28.1h4.6v2.1c1-0.9,1.9-1.5,2.6-1.7c0.8-0.3,1.4-0.4,2.1-0.4c0.2,0,0.3,0,0.6,0c0.2,0,0.4,0,0.5,0V32.4z"/>
	<path d="M250,42.5h-4.6V41c-0.8,0.6-1.5,1.1-2.2,1.4c-0.7,0.3-1.5,0.5-2.4,0.5c-1.8,0-3.1-0.7-4.2-2c-1.1-1.4-1.6-3.2-1.6-5.5
		c0-1.2,0.2-2.3,0.5-3.3c0.4-0.9,0.8-1.8,1.5-2.4c0.6-0.6,1.3-1.1,2.1-1.5c0.8-0.4,1.7-0.5,2.5-0.5c0.9,0,1.6,0.1,2.1,0.3
		c0.6,0.2,1.1,0.4,1.7,0.7v-6.1h4.6V42.5z M245.3,38.5v-7.1c-0.3-0.1-0.7-0.2-1-0.3c-0.4-0.1-0.7-0.1-1-0.1c-1.2,0-2.1,0.4-2.7,1.1
		c-0.6,0.8-0.9,1.8-0.9,3.2c0,1.4,0.2,2.4,0.7,3.1c0.5,0.6,1.3,1,2.3,1c0.4,0,0.9-0.1,1.3-0.2C244.6,39,245,38.7,245.3,38.5z"/>
	<path d="M269,35.3c0,2.4-0.7,4.2-2.1,5.6c-1.4,1.4-3.3,2-5.8,2s-4.4-0.7-5.8-2c-1.4-1.4-2.1-3.2-2.1-5.6c0-2.4,0.7-4.3,2.1-5.6
		s3.3-2,5.8-2c2.5,0,4.5,0.7,5.8,2.1C268.3,31,269,32.9,269,35.3z M263.4,38.8c0.3-0.4,0.5-0.8,0.7-1.3c0.2-0.5,0.2-1.2,0.2-2.1
		c0-0.8-0.1-1.6-0.2-2.1c-0.2-0.6-0.4-1-0.6-1.4c-0.3-0.4-0.6-0.6-1-0.7c-0.4-0.1-0.8-0.2-1.2-0.2s-0.8,0.1-1.2,0.2s-0.7,0.4-1,0.7
		c-0.3,0.3-0.5,0.8-0.7,1.4s-0.3,1.3-0.3,2.2c0,0.8,0.1,1.5,0.2,2s0.4,1,0.6,1.4c0.3,0.3,0.6,0.6,1,0.7c0.4,0.2,0.8,0.2,1.3,0.2
		c0.4,0,0.8-0.1,1.2-0.2C262.8,39.3,263.1,39.1,263.4,38.8z"/>
	<path d="M298.5,41.4c-0.9,0.3-2,0.7-3.4,1s-2.8,0.5-4.2,0.5c-3.2,0-5.8-0.9-7.6-2.6c-1.8-1.8-2.8-4.2-2.8-7.3c0-3,0.9-5.4,2.8-7.2
		c1.9-1.8,4.4-2.7,7.8-2.7c1.3,0,2.5,0.1,3.6,0.3c1.1,0.2,2.4,0.7,3.8,1.4v4.5h-0.6c-0.2-0.2-0.6-0.4-1.1-0.8
		c-0.5-0.3-0.9-0.6-1.3-0.8c-0.5-0.3-1.1-0.5-1.7-0.7s-1.4-0.3-2.1-0.3c-0.9,0-1.7,0.1-2.4,0.4s-1.3,0.6-1.9,1.2
		c-0.5,0.5-1,1.2-1.3,2s-0.5,1.7-0.5,2.7c0,2.1,0.6,3.7,1.7,4.8s2.8,1.7,5,1.7c0.2,0,0.4,0,0.6,0c0.2,0,0.4,0,0.6,0v-3.7h-3.8v-3.6
		h8.8V41.4z"/>
	<path d="M311.3,40.9c-0.2,0.2-0.6,0.4-0.9,0.7c-0.4,0.3-0.7,0.5-1,0.6c-0.5,0.2-0.9,0.4-1.4,0.5c-0.5,0.1-1,0.1-1.6,0.1
		c-1.4,0-2.5-0.4-3.4-1.3c-0.9-0.8-1.4-1.9-1.4-3.2c0-1.1,0.2-1.9,0.7-2.6c0.5-0.7,1.1-1.2,2-1.6c0.9-0.4,1.9-0.7,3.2-0.8
		s2.6-0.3,3.9-0.4v-0.1c0-0.8-0.3-1.3-1-1.6c-0.7-0.3-1.6-0.5-2.9-0.5c-0.8,0-1.6,0.1-2.4,0.4c-0.9,0.3-1.5,0.5-1.9,0.6h-0.4v-3.5
		c0.5-0.1,1.3-0.3,2.4-0.5c1.1-0.2,2.2-0.3,3.3-0.3c2.6,0,4.5,0.4,5.7,1.2c1.2,0.8,1.8,2.1,1.8,3.8v9.8h-4.6V40.9z M311.3,38.7v-3
		c-0.6,0.1-1.3,0.1-2,0.2s-1.3,0.2-1.7,0.3c-0.5,0.1-0.8,0.4-1.1,0.6c-0.2,0.3-0.4,0.6-0.4,1.1c0,0.3,0,0.5,0.1,0.7
		c0.1,0.2,0.2,0.4,0.4,0.5c0.2,0.2,0.4,0.3,0.7,0.4c0.3,0.1,0.7,0.1,1.3,0.1c0.5,0,0.9-0.1,1.4-0.3C310.6,39.2,311,39,311.3,38.7z"
		/>
	<path d="M324.8,42.5h-4.6v-20h4.6V42.5z"/>
	<path d="M333.8,42.5h-4.6v-20h4.6V42.5z"/>
	<path d="M352.3,36.1h-10.6c0.1,1.1,0.5,2,1.3,2.6s2,0.9,3.5,0.9c1,0,1.9-0.2,2.8-0.5c0.9-0.4,1.6-0.7,2.2-1.1h0.5v3.7
		c-1,0.4-2,0.7-2.9,0.9c-0.9,0.2-1.9,0.3-3.1,0.3c-2.9,0-5.1-0.6-6.6-1.9s-2.3-3.1-2.3-5.6c0-2.4,0.7-4.3,2.2-5.6
		c1.5-1.4,3.5-2.1,6-2.1c2.3,0,4.1,0.6,5.3,1.8c1.2,1.2,1.8,2.9,1.8,5.1V36.1z M347.7,33.4c0-1-0.3-1.7-0.7-2.2
		c-0.5-0.5-1.2-0.7-2.1-0.7c-0.9,0-1.6,0.2-2.2,0.7c-0.6,0.5-0.9,1.2-1,2.2H347.7z"/>
	<path d="M369.5,40.8c0,1.4-0.2,2.5-0.6,3.4c-0.4,0.9-0.9,1.6-1.6,2.2c-0.7,0.5-1.5,0.9-2.5,1.1c-1,0.2-2.1,0.4-3.3,0.4
		c-1,0-2-0.1-3-0.2c-1-0.1-1.8-0.3-2.5-0.4v-3.6h0.6c0.6,0.2,1.3,0.4,2.1,0.6s1.5,0.3,2.2,0.3c0.9,0,1.5-0.1,2.1-0.2
		s0.9-0.4,1.2-0.7c0.3-0.3,0.5-0.6,0.6-1.1c0.1-0.4,0.2-0.9,0.2-1.5v-0.3c-0.6,0.5-1.2,0.8-1.8,1.1c-0.7,0.3-1.4,0.4-2.3,0.4
		c-2,0-3.6-0.6-4.7-1.8c-1.1-1.2-1.6-3.1-1.6-5.5c0-1.2,0.2-2.2,0.5-3.1c0.3-0.9,0.8-1.6,1.4-2.3c0.6-0.6,1.3-1.1,2.1-1.4
		c0.8-0.3,1.7-0.5,2.5-0.5c0.8,0,1.5,0.1,2.1,0.3s1.2,0.4,1.7,0.8l0.2-0.6h4.5V40.8z M364.9,37.9v-6.5c-0.3-0.1-0.6-0.2-1-0.3
		c-0.4-0.1-0.7-0.1-1-0.1c-1.2,0-2.1,0.3-2.7,1c-0.6,0.7-0.9,1.7-0.9,2.9c0,1.4,0.3,2.4,0.8,2.9c0.5,0.5,1.3,0.8,2.3,0.8
		c0.5,0,0.9-0.1,1.4-0.2C364.1,38.3,364.6,38.2,364.9,37.9z"/>
	<path d="M388.6,35.3c0,2.4-0.7,4.2-2.1,5.6c-1.4,1.4-3.3,2-5.8,2c-2.5,0-4.4-0.7-5.8-2c-1.4-1.4-2.1-3.2-2.1-5.6
		c0-2.4,0.7-4.3,2.1-5.6s3.3-2,5.8-2c2.5,0,4.5,0.7,5.8,2.1C387.9,31,388.6,32.9,388.6,35.3z M382.9,38.8c0.3-0.4,0.5-0.8,0.7-1.3
		c0.1-0.5,0.2-1.2,0.2-2.1c0-0.8-0.1-1.6-0.2-2.1c-0.2-0.6-0.4-1-0.6-1.4c-0.3-0.4-0.6-0.6-1-0.7s-0.8-0.2-1.2-0.2
		c-0.4,0-0.8,0.1-1.2,0.2c-0.3,0.1-0.7,0.4-1,0.7c-0.3,0.3-0.5,0.8-0.7,1.4s-0.3,1.3-0.3,2.2c0,0.8,0.1,1.5,0.2,2
		c0.1,0.6,0.4,1,0.6,1.4c0.3,0.3,0.6,0.6,1,0.7c0.4,0.2,0.8,0.2,1.3,0.2c0.4,0,0.8-0.1,1.2-0.2S382.7,39.1,382.9,38.8z"/>
	<path d="M404.5,37.9c0,1.5-0.7,2.7-2,3.6s-3.2,1.4-5.5,1.4c-1.3,0-2.4-0.1-3.5-0.4s-1.9-0.5-2.5-0.8v-3.8h0.4
		c0.2,0.2,0.5,0.3,0.8,0.5c0.3,0.2,0.7,0.4,1.3,0.6c0.5,0.2,1,0.4,1.6,0.5c0.6,0.1,1.3,0.2,1.9,0.2c0.9,0,1.6-0.1,2-0.3
		c0.4-0.2,0.7-0.5,0.7-0.9c0-0.4-0.1-0.6-0.4-0.8s-0.7-0.3-1.5-0.5c-0.3-0.1-0.8-0.2-1.4-0.3c-0.6-0.1-1.1-0.2-1.6-0.3
		c-1.3-0.3-2.3-0.9-2.9-1.6s-0.9-1.6-0.9-2.7c0-1.4,0.7-2.5,2-3.5c1.3-0.9,3.1-1.4,5.4-1.4c1.1,0,2.1,0.1,3.1,0.3s1.8,0.5,2.3,0.7
		v3.6h-0.4c-0.7-0.5-1.5-0.9-2.3-1.1s-1.8-0.4-2.7-0.4c-0.7,0-1.4,0.1-1.9,0.3c-0.5,0.2-0.8,0.5-0.8,0.9c0,0.3,0.1,0.6,0.3,0.8
		s0.8,0.4,1.6,0.5c0.5,0.1,1,0.2,1.5,0.3s1.1,0.2,1.6,0.3c1.2,0.3,2.1,0.8,2.7,1.5S404.5,36.9,404.5,37.9z"/>
</g>
<g>
	<path d="M53.7,56.1c-2.3,0.9-5.4,1.8-9.3,2.7c-3.9,0.9-7.7,1.4-11.5,1.4C24,60.2,17,57.8,12,52.9c-5-4.8-7.5-11.5-7.5-20
		c0-8.1,2.5-14.7,7.6-19.6c5.1-5,12.2-7.5,21.2-7.5c3.4,0,6.7,0.3,9.8,0.9c3.1,0.6,6.6,1.9,10.4,3.7v12.2H52
		c-0.7-0.5-1.6-1.2-2.9-2.1c-1.3-0.9-2.5-1.7-3.7-2.3c-1.4-0.7-2.9-1.4-4.8-1.9c-1.8-0.5-3.7-0.8-5.8-0.8c-2.4,0-4.6,0.4-6.5,1.1
		c-1.9,0.7-3.7,1.8-5.2,3.2c-1.5,1.4-2.6,3.2-3.5,5.4c-0.9,2.2-1.3,4.7-1.3,7.5c0,5.8,1.5,10.2,4.6,13.3c3.1,3.1,7.6,4.6,13.6,4.6
		c0.5,0,1.1,0,1.7,0c0.6,0,1.2-0.1,1.7-0.1V40.2H29.6v-9.9h24.1V56.1z"/>
	<path d="M80.1,33.5H67V19.7h13.1V33.5z M80.1,59.1H67V45.3h13.1V59.1z"/>
	<path d="M92,56.1c2.3,0.9,5.4,1.8,9.3,2.7c3.9,0.9,7.7,1.4,11.5,1.4c8.9,0,15.9-2.4,20.9-7.2c5-4.8,7.5-11.5,7.5-20
		c0-8.1-2.5-14.7-7.6-19.6c-5.1-5-12.2-7.5-21.2-7.5c-3.4,0-6.7,0.3-9.8,0.9c-3.1,0.6-6.6,1.9-10.4,3.7v12.2h1.5
		c0.7-0.5,1.6-1.2,2.9-2.1c1.3-0.9,2.5-1.7,3.7-2.3c1.4-0.7,2.9-1.4,4.8-1.9c1.8-0.5,3.7-0.8,5.8-0.8c2.4,0,4.6,0.4,6.5,1.1
		c1.9,0.7,3.7,1.8,5.2,3.2c1.5,1.4,2.6,3.2,3.5,5.4c0.9,2.2,1.3,4.7,1.3,7.5c0,5.8-1.5,10.2-4.6,13.3c-3.1,3.1-7.6,4.6-13.6,4.6
		c-0.5,0-1.1,0-1.7,0c-0.6,0-1.2-0.1-1.7-0.1V40.2h10.4v-9.9H92V56.1z"/>
</g>
</svg>
